<svg viewBox="0 0 100 100" xml:space="preserve" xmlns="http://www.w3.org/2000/svg" enable-background="new 0 0 100 100"><path d="M85 4H15C8.9 4 4 8.9 4 15v70c0 6.1 4.9 11 11 11h35c.6 0 1-.4 1-1V60c0-.6-.4-1-1-1h-3c-.6 0-1-.4-1-1V47c0-.6.4-1 1-1h3c.6 0 1-.4 1-1V30c0-5 4-9 9-9h18c.6 0 1 .4 1 1v11c0 .6-.4 1-1 1H65c-.6 0-1 .4-1 1v10c0 .6.4 1 1 1h12.2c.7 0 1.2.7.9 1.3l-3.7 11c0 .4-.4.7-.8.7H65c-.6 0-1 .4-1 1v35c0 .6.4 1 1 1h20c6.1 0 11-4.9 11-11V15c0-6.1-4.9-11-11-11z" fill="#bfbfbf" class="fill-000000"></path></svg>